<svg width="1280" height="640" viewBox="0 0 1280 640" xmlns="http://www.w3.org/2000/svg">
  <defs>
    <linearGradient id="bg" x1="0%" y1="0%" x2="100%" y2="100%">
      <stop offset="0%" stop-color="#0b0f1f"/>
      <stop offset="100%" stop-color="#06081a"/>
    </linearGradient>
    <linearGradient id="accent" x1="0%" y1="0%" x2="100%" y2="0%">
      <stop offset="0%" stop-color="#9945FF"/>
      <stop offset="50%" stop-color="#14F195"/>
      <stop offset="100%" stop-color="#00D4FF"/>
    </linearGradient>
    <linearGradient id="title" x1="0%" y1="0%" x2="0%" y2="100%">
      <stop offset="0%" stop-color="#ffffff"/>
      <stop offset="100%" stop-color="#cbd5e1"/>
    </linearGradient>
    <radialGradient id="glow" cx="50%" cy="40%" r="60%">
      <stop offset="0%" stop-color="#9945FF" stop-opacity="0.15"/>
      <stop offset="100%" stop-color="#9945FF" stop-opacity="0"/>
    </radialGradient>
  </defs>

  <rect width="1280" height="640" fill="url(#bg)"/>
  <rect width="1280" height="640" fill="url(#glow)"/>

  <g opacity="0.06" stroke="#64748b" stroke-width="1">
    <line x1="0" y1="160" x2="1280" y2="160"/>
    <line x1="0" y1="320" x2="1280" y2="320"/>
    <line x1="0" y1="480" x2="1280" y2="480"/>
    <line x1="320" y1="0" x2="320" y2="640"/>
    <line x1="640" y1="0" x2="640" y2="640"/>
    <line x1="960" y1="0" x2="960" y2="640"/>
  </g>

  <text x="640" y="100" font-family="ui-monospace, SFMono-Regular, Menlo, monospace" font-size="20" font-weight="500" fill="url(#accent)" text-anchor="middle" letter-spacing="6">AUTONOMOUS  ·  ON-CHAIN  ·  OPEN-SOURCE</text>

  <text x="640" y="270" font-family="-apple-system, system-ui, sans-serif" font-size="180" font-weight="900" fill="url(#title)" text-anchor="middle" letter-spacing="-6">oracle3</text>

  <text x="640" y="360" font-family="-apple-system, system-ui, sans-serif" font-size="44" font-weight="700" fill="#f8fafc" text-anchor="middle" letter-spacing="-1">AI Agent for Prediction Markets</text>

  <g font-family="-apple-system, system-ui, sans-serif" font-size="22" font-weight="600">
    <g transform="translate(360, 450)">
      <rect x="0" y="0" width="180" height="56" rx="28" fill="#0f172a" stroke="#00D4FF" stroke-width="2"/>
      <text x="90" y="36" fill="#00D4FF" text-anchor="middle">Kalshi</text>
    </g>
    <g transform="translate(560, 450)">
      <rect x="0" y="0" width="180" height="56" rx="28" fill="#0f172a" stroke="#14F195" stroke-width="2"/>
      <text x="90" y="36" fill="#14F195" text-anchor="middle">Polymarket</text>
    </g>
    <g transform="translate(760, 450)">
      <rect x="0" y="0" width="180" height="56" rx="28" fill="#0f172a" stroke="#9945FF" stroke-width="2"/>
      <text x="90" y="36" fill="#9945FF" text-anchor="middle">Solana</text>
    </g>
  </g>

  <text x="640" y="585" font-family="ui-monospace, SFMono-Regular, Menlo, monospace" font-size="20" fill="#64748b" text-anchor="middle">github.com/YichengYang-Ethan/oracle3-prediction-market-agent</text>
</svg>
